<?xml version="1.0" encoding="UTF-8" standalone="no"?>
<!-- Created with Inkscape (http://www.inkscape.org/) -->

<svg
   xmlns:dc="http://purl.org/dc/elements/1.1/"
   xmlns:cc="http://creativecommons.org/ns#"
   xmlns:rdf="http://www.w3.org/1999/02/22-rdf-syntax-ns#"
   xmlns:svg="http://www.w3.org/2000/svg"
   xmlns="http://www.w3.org/2000/svg"
   xmlns:sodipodi="http://sodipodi.sourceforge.net/DTD/sodipodi-0.dtd"
   xmlns:inkscape="http://www.inkscape.org/namespaces/inkscape"
   version="1.0"
   width="48"
   height="48"
   viewBox="0 0 48 48"
   id="svg2"
   xml:space="preserve"
   inkscape:version="0.48.4 r9939"
   sodipodi:docname="printer-error.svg"><sodipodi:namedview
     pagecolor="#ffffff"
     bordercolor="#666666"
     borderopacity="1"
     objecttolerance="10"
     gridtolerance="10"
     guidetolerance="10"
     inkscape:pageopacity="0"
     inkscape:pageshadow="2"
     inkscape:window-width="1366"
     inkscape:window-height="718"
     id="namedview21"
     showgrid="false"
     inkscape:zoom="6.9532167"
     inkscape:cx="5.5482172"
     inkscape:cy="22.946702"
     inkscape:window-x="0"
     inkscape:window-y="0"
     inkscape:window-maximized="1"
     inkscape:current-layer="svg2" /><defs
     id="defs16" /><metadata
     id="metadata31"><rdf:RDF><cc:Work
         rdf:about=""><dc:format>image/svg+xml</dc:format><dc:type
           rdf:resource="http://purl.org/dc/dcmitype/StillImage" /><dc:title /></cc:Work></rdf:RDF></metadata><rect
     width="48"
     height="48"
     rx="0"
     ry="0"
     x="0"
     y="0"
     id="rect3981"
     style="fill:none" /><g
     id="g3100"
     style="fill:#ffffff;stroke:#ffffff;stroke-width:8;stroke-miterlimit:4;stroke-dasharray:none"><path
       d="m 41,42 c 0,0.4 -0.6,1 -1,1 H 8 C 7.6,43 7,42.4 7,42 v -2 c 0,-0.4 0.5,-0.7 0.9,-0.7 h 31.9 c 0.4,0 1.2,0.3 1.2,0.7 v 2 z"
       id="path3102"
       style="fill:#ffffff;stroke:#ffffff;stroke-width:8;stroke-linejoin:round;stroke-miterlimit:4;stroke-dasharray:none" /><path
       d="m 44,39 c 0,0.4 -0.6,1 -1,1 H 5 C 4.6,40 4,39.4 4,39 V 25 c 0,-0.4 0.6,-1 1,-1 h 38 c 0.4,0 1,0.6 1,1 v 14 z"
       id="path3104"
       style="fill:#ffffff;stroke:#ffffff;stroke-width:8;stroke-linejoin:round;stroke-miterlimit:4;stroke-dasharray:none" /><path
       d="M 12,4 C 9,4 8,6 8,8 V 26 H 40 V 8 C 40,6 39,4 36,4 H 12 z"
       id="path3106"
       style="fill:#ffffff;stroke:#ffffff;stroke-width:8;stroke-linejoin:round;stroke-miterlimit:4;stroke-dasharray:none" /></g><g
     id="g3095"><path
       d="m 41,42 c 0,0.4 -0.6,1 -1,1 H 8 C 7.6,43 7,42.4 7,42 v -2 c 0,-0.4 0.5,-0.7 0.9,-0.7 h 31.9 c 0.4,0 1.2,0.3 1.2,0.7 v 2 z"
       id="path13" /><path
       d="m 44,39 c 0,0.4 -0.6,1 -1,1 H 5 C 4.6,40 4,39.4 4,39 V 25 c 0,-0.4 0.6,-1 1,-1 h 38 c 0.4,0 1,0.6 1,1 v 14 z"
       id="path15" /><path
       d="M 12,4 C 9,4 8,6 8,8 V 26 H 40 V 8 C 40,6 39,4 36,4 H 12 z"
       id="path17" /></g><path
     d="M 36,24 H 12 V 9 c 0,0 0,-1 1,-1 h 22 c 1,0 1,1 1,1 v 15 z"
     id="path19"
     style="fill:#ffffff" /><path
     d="M 11,37 H 37"
     id="path1315"
     style="fill:#ffffff;fill-rule:evenodd;stroke:#ffffff;stroke-width:4" /><path
     d="M 30.335591,21.635594 18.781356,42.025423 H 41.889829 L 30.335591,21.635594 z"
     id="path5508"
     style="fill:#ffffff;stroke:#ffffff;stroke-width:12;stroke-linecap:round;stroke-linejoin:round;stroke-miterlimit:4;stroke-dasharray:none" /><path
     d="M 30.335591,21.635594 18.781356,42.025423 H 41.889829 L 30.335591,21.635594 z"
     id="path9"
     style="fill:none;stroke:#d30000;stroke-width:5;stroke-linecap:round;stroke-linejoin:round;stroke-opacity:1;stroke-miterlimit:4;stroke-dasharray:none" /><path
     d="M 30.335591,22.315255 19.461017,41.345762 H 41.210168 L 30.335591,22.315255 z"
     id="path11"
     style="fill:#ffffff" /><path
     d="m 29.1122,35.126865 -0.611695,-6.728642 h 3.670171 l -0.611695,6.728642 H 29.1122 z"
     id="path15-6"
     style="fill:#d30000;fill-opacity:1;stroke:none"
     inkscape:connector-curvature="0" /><path
     d="m 32.132445,38.175799 a 1.8159696,1.8446428 0 0 1 -3.631939,0 1.8159696,1.8446428 0 1 1 3.631939,0 z"
     id="path6965"
     style="fill:#d30000;fill-opacity:1;fill-rule:evenodd"
     inkscape:connector-curvature="0" /></svg>