<?xml version="1.0" encoding="UTF-8" standalone="no"?>
<!-- Created with Inkscape (http://www.inkscape.org/) -->

<svg
   xmlns:dc="http://purl.org/dc/elements/1.1/"
   xmlns:cc="http://creativecommons.org/ns#"
   xmlns:rdf="http://www.w3.org/1999/02/22-rdf-syntax-ns#"
   xmlns:svg="http://www.w3.org/2000/svg"
   xmlns="http://www.w3.org/2000/svg"
   version="1.0"
   width="48"
   height="48"
   viewBox="0 0 48 48"
   id="svg2"
   xml:space="preserve"><defs
   id="defs10" /><metadata
   id="metadata29"><rdf:RDF><cc:Work
       rdf:about=""><dc:format>image/svg+xml</dc:format><dc:type
         rdf:resource="http://purl.org/dc/dcmitype/StillImage" /><dc:title></dc:title><dc:creator><cc:Agent><dc:title>Luca Ferretti &lt;elle.uca@libero.it&gt;</dc:title></cc:Agent></dc:creator><dc:subject><rdf:Bag><rdf:li>network</rdf:li><rdf:li>status</rdf:li><rdf:li>offline</rdf:li><rdf:li>disconnected</rdf:li></rdf:Bag></dc:subject><dc:description>A plug</dc:description><dc:contributor><cc:Agent><dc:title>Jakub Steiner did the previous non-pixel perfect version.</dc:title></cc:Agent></dc:contributor><cc:license
         rdf:resource="http://creativecommons.org/licenses/LGPL/2.1/" /></cc:Work><cc:License
       rdf:about="http://creativecommons.org/licenses/LGPL/2.1/"><cc:permits
         rdf:resource="http://web.resource.org/cc/Reproduction" /><cc:permits
         rdf:resource="http://web.resource.org/cc/Distribution" /><cc:requires
         rdf:resource="http://web.resource.org/cc/Notice" /><cc:permits
         rdf:resource="http://web.resource.org/cc/DerivativeWorks" /><cc:requires
         rdf:resource="http://web.resource.org/cc/ShareAlike" /><cc:requires
         rdf:resource="http://web.resource.org/cc/SourceCode" /></cc:License></rdf:RDF></metadata>
<g
   id="layer1"><g
     transform="matrix(0.95516418,0,0,0.96551724,0.7788209,1.3103449)"
     id="g3759"
     style="stroke:#ffffff;stroke-width:8.33049774;stroke-linecap:round;stroke-linejoin:round;stroke-miterlimit:4;stroke-opacity:1;stroke-dasharray:none"><rect
       width="8.1456604"
       height="24.20339"
       x="3.3723826"
       y="11.98061"
       id="rect3761"
       style="fill:#000000;fill-opacity:1;stroke:#ffffff;stroke-width:8.33049774;stroke-linecap:round;stroke-linejoin:round;stroke-miterlimit:4;stroke-opacity:1;stroke-dasharray:none" /><path
       d="m 7,21 h 8 c 1,-4 2,-11 9,-12 h 10 v 5 h 9 c 3,0 3,5 0,5 h -9 v 9 h 9 c 3,0 3,5 0,5 h -9 v 5 H 24 C 17,37 16,31 15,27 H 7 v -6 z"
       id="path3763"
       style="fill-rule:evenodd;stroke:#ffffff;stroke-width:8.33049774;stroke-linecap:round;stroke-linejoin:round;stroke-miterlimit:4;stroke-opacity:1;stroke-dasharray:none" /></g><g
     transform="matrix(0.95516418,0,0,0.96551724,0.7788209,1.3103449)"
     id="g3755"><rect
       width="8.1456604"
       height="24.20339"
       x="3.3723826"
       y="11.98061"
       id="rect3755"
       style="fill:#000000;fill-opacity:1;stroke:none" /><path
       d="m 7,21 h 8 c 1,-4 2,-11 9,-12 h 10 v 5 h 9 c 3,0 3,5 0,5 h -9 v 9 h 9 c 3,0 3,5 0,5 h -9 v 5 H 24 C 17,37 16,31 15,27 H 7 v -6 z"
       id="path2182"
       style="fill-rule:evenodd" /></g><path
     d="m 33,21.426787 c -6.383442,-1e-6 -11.573213,5.197329 -11.573213,11.584373 0,6.387044 5.189771,11.562053 11.573213,11.562053 6.38344,10e-7 11.573213,-5.175009 11.573213,-11.562053 0,-6.387044 -5.189772,-11.584373 -11.573213,-11.584373 z m -6.489027,9.441599 13.022652,0 0,4.040022 -13.022652,0 0,-4.040022 z"
     id="path3002"
     style="color:#000000;fill:#d30000;fill-opacity:1;fill-rule:nonzero;stroke:#ffffff;stroke-width:6.8535738;stroke-miterlimit:4;stroke-opacity:1;stroke-dasharray:none;marker:none;visibility:visible;display:inline;overflow:visible" /><path
     d="m 33,21.426787 c -6.383442,-1e-6 -11.573213,5.197329 -11.573213,11.584373 0,6.387044 5.189771,11.562053 11.573213,11.562053 6.38344,10e-7 11.573213,-5.175009 11.573213,-11.562053 0,-6.387044 -5.189772,-11.584373 -11.573213,-11.584373 z m -6.489027,9.441599 13.022652,0 0,4.040022 -13.022652,0 0,-4.040022 z"
     id="path4445"
     style="color:#000000;fill:#d30000;fill-opacity:1;fill-rule:nonzero;stroke:none;stroke-width:2.96536064;marker:none;visibility:visible;display:inline;overflow:visible" /></g></svg>