<svg width="48" xmlns="http://www.w3.org/2000/svg" height="48" xmlns:xlink="http://www.w3.org/1999/xlink">
<defs id="defs1308">
<linearGradient id="linearGradient5138">
<stop offset="0" style="stop-color:#fff" id="stop5140"/>
<stop offset="1" style="stop-color:#fff;stop-opacity:0" id="stop5142"/>
</linearGradient>
<linearGradient id="linearGradient5164">
<stop offset="0" style="stop-color:#fff" id="stop5166"/>
<stop offset="1" style="stop-color:#fff;stop-opacity:0" id="stop5168"/>
</linearGradient>
<linearGradient id="linearGradient5154">
<stop offset="0" style="stop-color:#d9d8d6" id="stop5156"/>
<stop offset="1" style="stop-color:#b5b4b0" id="stop5158"/>
</linearGradient>
<linearGradient id="linearGradient5191">
<stop offset="0" style="stop-color:#dadad9" id="stop5193"/>
<stop offset="1" style="stop-color:#dadad9;stop-opacity:0" id="stop5195"/>
</linearGradient>
<linearGradient id="linearGradient5199">
<stop offset="0" style="stop-color:#7e7878;stop-opacity:.097" id="stop5201"/>
<stop offset="1" style="stop-color:#7e7878" id="stop5203"/>
</linearGradient>
<radialGradient fx="22.288452" fy="34.537094" cx="22.288452" cy="34.537094" gradientTransform="matrix(1.498147,2.619729e-16,-1.977154e-16,1.130677,-11.10293,-5.288817)" xlink:href="#linearGradient5191" id="radialGradient5197" r="9.9375" gradientUnits="userSpaceOnUse"/>
<radialGradient fx="23.688078" fy="23.42804" cx="23.688078" cy="23.42804" xlink:href="#linearGradient5164" id="radialGradient5170" r="22.45064" gradientUnits="userSpaceOnUse"/>
<radialGradient fx="23.071428" fy="11.011853" cx="23.071428" cy="11.011853" gradientTransform="matrix(3.373032,-2.744236e-17,2.744127e-17,3.373032,-54.74925,-26.13148)" xlink:href="#linearGradient5138" id="radialGradient5144" r="22.856438" gradientUnits="userSpaceOnUse"/>
<radialGradient fx="24.125" fy="9.7349367" cx="24.125" cy="9.7349367" gradientTransform="matrix(1.652014,3.935566e-16,-2.592475e-16,1.088231,-15.72984,3.156134)" xlink:href="#linearGradient5199" id="radialGradient5205" r="15.75" gradientUnits="userSpaceOnUse"/>
<radialGradient fx="23.071428" fy="6.8925552" cx="23.071428" cy="6.8925552" gradientTransform="matrix(1.440625,4.174343e-16,-4.174186e-16,1.440625,-10.16586,-3.037035)" xlink:href="#linearGradient5154" id="radialGradient5160" r="22.812966" gradientUnits="userSpaceOnUse"/>
</defs>
<g id="layer1">
<g style="fill-rule:evenodd;stroke-linejoin:round;color:#000">
<path style="stroke-linecap:round;fill:url(#radialGradient5170);stroke:none" id="path5162" d="m 46.1387,23.428 a 22.4506,22.4506 0 1,1 -44.9013,0 22.4506,22.4506 0 1,1 44.9013,0 z " transform="translate(-0.146446,0.103554)"/>
<path style="stroke-width:1.34;fill:url(#radialGradient5160);stroke:#888a85" id="path1314" d="m 45.2143,23.1429 a 22.1429,22.1429 0 1,1 -44.2857,0 22.1429,22.1429 0 1,1 44.2857,0 z " transform="matrix(0.746154,0,0,0.74614,6.850475,6.75386)"/>
<path style="opacity:.331;stroke-linecap:round;fill:url(#radialGradient5205);stroke:none" id="path5152" d="m 10.875,25 c 0,0 2.59375,1.21875 2.625,2.125 0.03125,0.90625 -2.3125,0.3125 -2.5,1.5 -0.1875,1.1875 0.28125,3.21875 1.75,3.25 1.46875,0.03125 1.84375,-2.4375 4.125,-3.125 2.28125,-0.6875 4,1.46875 5,0.375 1,-1.09375 -1.15625,-2.625 -1,-4.75 0.15625,-2.125 0.53125,-1.71875 1.625,-2.4375 1.09375,-0.71875 1.50299,1.72238 2.75,-0.4375 1.20508,-2.08727 -2.53125,-1.34375 -2.375,-2.75 0.15625,-1.40625 1.09375,-2.96875 3,-2.875 1.90625,0.09375 4.625,3.25 4.625,3.25 1.21114,1.16526 0.038624,3.4264 0.625,5 0.688739,1.8483 2.58333,1.74243 3.875,1.75 0,0 -1.90625,-2.15625 -1.625,-3.5 0.28125,-1.34375 1.375,-2.6875 2.75,-1.875 1.375,0.8125 2.75,5.125 2.75,5.125 l 1,-4.375 -2.125,-5.25 c 0,0 -3.03125,1.0625 -6.375,0.375 -3.34375,-0.6875 -3.6875,-3.28125 -7,-3.125 -3.3125,0.15625 -3.625,3.46875 -6.25,3.75 -2.625,0.28125 -3.375,-1.15625 -4.25,-2.625 -0.875,-1.46875 0.75,-3.25 0.75,-3.25 l -6.25,8.5 2.5,5.375 z "/>
<path style="opacity:.809;stroke-width:1.427;fill:none;stroke:url(#radialGradient5144)" id="path2044" d="m 45.2143,23.1429 a 22.1429,22.1429 0 1,1 -44.2857,0 22.1429,22.1429 0 1,1 44.2857,0 z " transform="matrix(0.700698,0,0,0.700684,7.903204,7.809815)"/>
<g style="stroke-linecap:round">
<path style="opacity:.646;fill:url(#radialGradient5197);stroke:none" id="path5150" d="m 22.625,27 c 0.382135,1.58933 0.877663,2.61168 1.375,3.625 1.55453,-0.140944 2.79341,-0.913178 4,-1.75 -0.722958,1.50878 -1.57191,2.93358 -2.64775,4.20711 2.26597,0.881285 4.36656,0.687649 6.39775,0.042893 -1.42529,1.19341 -2.80674,2.11464 -5.71339,2.39645 2.09821,0.63309 4.42378,1.36164 7.33839,0.478553 -2.67688,1.5464 -5.48796,2.71705 -8.75,2.625 l 3.2286,-.0455 -6.4786,.2955 -3.375,-.625 .125,-1.5 c -1.41131,0.157149 -2.98021,-0.631292 -4.5,-1.125 1.3655,-0.605625 2.83261,-1.08424 3.75,-2.25 -1.77543,-0.349574 -2.62216,-1.62784 -3.875,-2.5 1.66666,0.25003 3.20978,1.24135 5,0.75 -0.935272,-2.58333 -0.823175,-5.16667 -1.125,-7.75 1.02097,2.20833 1.68557,4.41667 3.125,6.625 0.960276,-0.725767 1.63565,-1.95012 2.125,-3.5 z "/>
<path style="opacity:.331;stroke-width:1.155;fill:#bbbbb8;stroke:#888984" id="path4263" d="m 23.875,34.5 a 2.25,2.25 0 1,1 -4.5,0 2.25,2.25 0 1,1 4.5,0 z " transform="matrix(1,0,0,0.75,0,8.769607)"/>
<g style="stroke:none">
<g style="fill:#b2afad">
<path style="opacity:.719" id="path5207" d="m 25,21.75 a 2.625,2.3125 0 1,1 -5.25,0 2.625,2.3125 0 1,1 5.25,0 z "/>
<path style="opacity:.719" id="path5209" d="m 25,21.75 a 2.625,2.3125 0 1,1 -5.25,0 2.625,2.3125 0 1,1 5.25,0 z " transform="matrix(1.22619,0,0,1.22619,-10.09226,-10.31771)"/>
<path style="opacity:.719" id="path5211" d="m 25,21.75 a 2.625,2.3125 0 1,1 -5.25,0 2.625,2.3125 0 1,1 5.25,0 z " transform="matrix(1.060177,0.61609,-0.61609,1.060177,4.459731,-11.05444)"/>
</g>
<g style="fill:#dfdedc">
<path style="opacity:.719" id="path5213" d="m 25,21.75 a 2.625,2.3125 0 1,1 -5.25,0 2.625,2.3125 0 1,1 5.25,0 z " transform="matrix(0.398445,0.375367,-0.217478,0.387667,31.50244,6.347965)"/>
<path style="opacity:.719" id="path5215" d="m 25,21.75 a 2.625,2.3125 0 1,1 -5.25,0 2.625,2.3125 0 1,1 5.25,0 z " transform="matrix(-9.424576e-2,0.266814,-0.228734,-2.18427e-2,38.6609,29.47153)"/>
<path style="opacity:.719" id="path5217" d="m 25,21.75 a 2.625,2.3125 0 1,1 -5.25,0 2.625,2.3125 0 1,1 5.25,0 z " transform="matrix(0.211478,0.199229,-0.115428,0.205758,34.19839,11.49557)"/>
</g>
<g style="fill:#f7f7f6">
<path style="opacity:.719" id="path5219" d="m 25,21.75 a 2.625,2.3125 0 1,1 -5.25,0 2.625,2.3125 0 1,1 5.25,0 z " transform="matrix(0.502196,-0.217849,0.270291,0.352881,2.662133,8.622118)"/>
<path style="opacity:.719" id="path5221" d="m 25,21.75 a 2.625,2.3125 0 1,1 -5.25,0 2.625,2.3125 0 1,1 5.25,0 z " transform="matrix(0.301729,-0.130888,0.162396,0.212018,12.27059,8.635285)"/>
<path style="opacity:.719" id="path5223" d="m 25,21.75 a 2.625,2.3125 0 1,1 -5.25,0 2.625,2.3125 0 1,1 5.25,0 z " transform="matrix(0.212633,-9.223866e-2,0.114443,0.149412,14.87145,10.98834)"/>
</g>
</g>
</g>
</g>
<path style="opacity:.25;stroke:#000;stroke-width:0" id="shadow" d="m 24.1,39 c -8.29532,0 -15.02,-6.72468 -15.02,-15.02 s 6.72468,-15.02 15.02,-15.02 c -6.35458,0 -11.506,6.72468 -11.506,15.02 s 5.15141,15.02 11.506,15.02 z "/>
</g>
</svg>
