<svg width="48" version="1.1" xmlns="http://www.w3.org/2000/svg" height="48" xmlns:xlink="http://www.w3.org/1999/xlink">
<defs id="defs1308">
<filter width="1" x="0" y="0" height="1" style="color-interpolation-filters:sRGB" id="filter3037">
<feColorMatrix values="0" type="saturate" id="feColorMatrix3039"/>
</filter>
<filter width="1" x="0" y="0" height="1" style="color-interpolation-filters:sRGB" id="filter3045">
<feColorMatrix values="0" type="saturate" id="feColorMatrix3047"/>
</filter>
<filter width="1" x="0" y="0" height="1" style="color-interpolation-filters:sRGB" id="filter3041">
<feColorMatrix values="0" type="saturate" id="feColorMatrix3043"/>
</filter>
<filter width="1" x="0" y="0" height="1" style="color-interpolation-filters:sRGB" id="filter3049">
<feColorMatrix values="0" type="saturate" id="feColorMatrix3051"/>
</filter>
<filter width="1" x="0" y="0" height="1" style="color-interpolation-filters:sRGB" id="filter3057">
<feColorMatrix values="0" type="saturate" id="feColorMatrix3059"/>
</filter>
<filter width="1" x="0" y="0" height="1" style="color-interpolation-filters:sRGB" id="filter3053">
<feColorMatrix values="0" type="saturate" id="feColorMatrix3055"/>
</filter>
<linearGradient id="linearGradient5191">
<stop offset="0" style="stop-color:#dadad9" id="stop5193"/>
<stop offset="1" style="stop-color:#dadad9;stop-opacity:0" id="stop5195"/>
</linearGradient>
<linearGradient id="linearGradient5164">
<stop offset="0" style="stop-color:#fff" id="stop5166"/>
<stop offset="1" style="stop-color:#fff;stop-opacity:0" id="stop5168"/>
</linearGradient>
<linearGradient id="linearGradient1994">
<stop offset="0" style="stop-color:#fff" id="stop1997"/>
<stop offset="0.5" style="stop-color:#fff" id="stop2001"/>
<stop offset="1" style="stop-color:#d3d7cf" id="stop1999"/>
</linearGradient>
<linearGradient id="linearGradient5154">
<stop offset="0" style="stop-color:#d9d8d6" id="stop5156"/>
<stop offset="1" style="stop-color:#b5b4b0" id="stop5158"/>
</linearGradient>
<linearGradient id="linearGradient5138">
<stop offset="0" style="stop-color:#fff" id="stop5140"/>
<stop offset="1" style="stop-color:#fff;stop-opacity:0" id="stop5142"/>
</linearGradient>
<linearGradient id="linearGradient5199">
<stop offset="0" style="stop-color:#7e7878;stop-opacity:.097" id="stop5201"/>
<stop offset="1" style="stop-color:#7e7878" id="stop5203"/>
</linearGradient>
<radialGradient fx="23.071428" fy="11.011853" cx="23.071428" cy="11.011853" gradientTransform="matrix(3.373032,-2.744236e-17,2.744127e-17,3.373032,-54.74925,-26.13148)" xlink:href="#linearGradient5138" id="radialGradient5144" r="22.856438" gradientUnits="userSpaceOnUse"/>
<radialGradient fx="22.288452" fy="34.537094" cx="22.288452" cy="34.537094" gradientTransform="matrix(1.498147,2.619729e-16,-1.977154e-16,1.130677,-11.10293,-5.288817)" xlink:href="#linearGradient5191" id="radialGradient5197" r="9.9375" gradientUnits="userSpaceOnUse"/>
<radialGradient fx="24.125" fy="9.7349367" cx="24.125" cy="9.7349367" gradientTransform="matrix(1.652014,3.935566e-16,-2.592475e-16,1.088231,-15.72984,3.156134)" xlink:href="#linearGradient5199" id="radialGradient5205" r="15.75" gradientUnits="userSpaceOnUse"/>
<radialGradient fx="23.688078" fy="23.42804" cx="23.688078" cy="23.42804" xlink:href="#linearGradient5164" id="radialGradient5170" r="22.45064" gradientUnits="userSpaceOnUse"/>
<radialGradient fx="23.071428" fy="6.8925552" cx="23.071428" cy="6.8925552" gradientTransform="matrix(1.440625,4.174343e-16,-4.174186e-16,1.440625,-10.16586,-3.037035)" xlink:href="#linearGradient5154" id="radialGradient5160" r="22.812966" gradientUnits="userSpaceOnUse"/>
<radialGradient fx="19.160831" fy="10.574146" cx="19.160831" cy="10.574146" gradientTransform="matrix(1.186004,-2.209896e-2,1.097582e-2,0.589216,-4.153381,5.817969)" xlink:href="#linearGradient1994" id="radialGradient2003" r="8.484375" gradientUnits="userSpaceOnUse"/>
<radialGradient fx="30.319067" fy="23.864922" cx="30.319067" cy="23.864922" gradientTransform="matrix(1.430283,5.356339e-3,-2.040517e-3,0.546399,-12.64539,12.08204)" xlink:href="#linearGradient1994" id="radialGradient3088" r="16.5" gradientUnits="userSpaceOnUse"/>
<radialGradient fx="10.255606" fy="17.808355" cx="10.255606" cy="17.808355" gradientTransform="matrix(1.090165,-1.249946e-2,5.362702e-3,0.467677,-1.896362,13.38227)" xlink:href="#linearGradient1994" id="radialGradient2979" r="15" gradientUnits="userSpaceOnUse"/>
</defs>
<g id="layer1">
<g style="stroke-linecap:round;stroke-dashoffset:1.2">
<path style="opacity:.15;filter:url(#filter3057);stroke:none" id="path3109" d="m 39,17.9688 c -1.10858,0 -2,0.928153 -2,2.03125 0,0.075572 0.021383,0.11913 0.03125,0.1875 -1.44284,0.363539 -2.54041,1.47651 -2.875,2.9375 -1.16395,0.252864 -2.1467,0.973416 -2.6875,2 -0.065463,0.013987 -0.124499,0.046582 -0.1875,0.0625 -0.544803,-0.684951 -1.33516,-1.1875 -2.28125,-1.1875 -1.23619,0 -2.26209,0.770316 -2.71875,1.84375 -0.645901,-0.486825 -1.40339,-0.84375 -2.28125,-0.84375 -0.040092,0 -0.030977,-0.002398 -0.0625,0 -0.911778,-1.19562 -2.31976,-2 -3.9375,-2 -0.456869,0 -0.87086,0.132909 -1.28125,0.25 -0.455703,-1.15721 -1.48557,-2.012 -2.75,-2.1875 -0.023272,-0.00323 -0.039088,-0.028482 -0.0625,-0.03125 -0.993183,-0.620891 -2.14743,-1.03125 -3.40625,-1.03125 -2.70951,0 -4.99909,1.69603 -5.96875,4.0625 -0.171674,-0.032304 -0.329892,-0.0625 -0.53125,-0.0625 -1.46446,0 -2.71496,0.825936 -3.40625,2 -0.0419382,-0.004394 -0.0433529,0 -0.09375,0 -1.36965,0 -2.5,1.12162 -2.5,2.5 0,1.37838 1.12084,2.53125 2.5,2.53125 0.281684,0 0.527239,-0.100232 0.78125,-0.1875 0.711383,0.684348 1.64644,1.15625 2.71875,1.15625 0.837024,0 1.56029,-0.31376 2.1875,-0.75 1.14589,1.04224 2.63648,1.75 4.3125,1.75 0.353207,0 0.692065,-0.038973 1.03125,-0.09375 0.446416,0.64122 1.12228,1.125 1.96875,1.125 1.03083,0 1.87343,-0.664163 2.25,-1.5625 0.623193,0.882181 1.58055,1.53125 2.75,1.53125 0.650677,1e-06 1.23249,-0.222695 1.75,-0.53125 0.816996,0.903064 1.93209,1.53125 3.25,1.53125 1.06547,0 1.98521,-0.443265 2.75,-1.0625 1.01057,1.24046 2.52988,2.0625 4.25,2.0625 1.48864,1e-06 2.76874,-0.667331 3.75,-1.625 0.506443,0.368642 1.08883,0.625 1.75,0.625 1.03292,-1e-06 1.89613,-0.575194 2.4375,-1.375 0.48074,0.211687 0.99749,0.375 1.5625,0.375 1.07431,0 2.00729,-0.467832 2.71875,-1.15625 0.254831,0.08774 0.499751,0.1875 0.78125,0.1875 1.37916,1e-06 2.5,-1.15287 2.5,-2.53125 1e-06,-1.37838 -1.13035,-2.5 -2.5,-2.5 -0.062556,0 -0.073303,0.024953 -0.125,0.03125 -0.353693,-0.610908 -0.880006,-1.08864 -1.5,-1.4375 0.047736,-0.194507 0.125,-0.368885 0.125,-0.59375 0,-1.36456 -0.944579,-2.45287 -2.1875,-2.8125 -0.17494,-0.828502 -0.587398,-1.54252 -1.1875,-2.09375 0.221082,-0.31532 0.375,-0.671596 0.375,-1.09375 0,-1.1031 -0.891419,-2.03125 -2,-2.03125 z " transform="translate(0,1)"/>
<g style="filter:url(#filter3053)" id="g3333" transform="translate(0,2)">
<path style="fill:url(#radialGradient2979);stroke:#729fcf" id="path3174" d="m 12.5,18.5 c -2.65133,0 -4.90046,1.73612 -5.6875,4.125 -0.266153,-0.065067 -0.526392,-0.125 -0.8125,-0.125 -1.40396,0 -2.60315,0.86604 -3.15625,2.0625 -0.11109,-0.019424 -0.227175,-0.0625 -0.34375,-0.0625 -1.09755,0 -2,0.894185 -2,2 0,1.10582 0.902447,2.03125 2,2.03125 0.323324,0 0.636302,-0.0806 0.90625,-0.21875 0.638894,0.713955 1.561,1.1875 2.59375,1.1875 0.853595,0 1.61228,-0.334075 2.21875,-0.84375 1.08844,1.12083 2.59669,1.84375 4.28125,1.84375 0.413195,0 0.829041,-0.045187 1.21875,-0.125 0.323758,0.664477 0.997409,1.15625 1.78125,1.15625 1.03411,0 1.87388,-0.826717 1.96875,-1.84375 0.723373,0.499111 1.58654,0.8125 2.53125,0.8125 0.761556,0 1.46524,-0.227371 2.09375,-0.5625 0.549759,0.361906 1.19931,0.5625 1.90625,0.5625 0.761287,0 1.45753,-0.241855 2.03125,-0.65625 0.364082,0.408313 0.881492,0.6875 1.46875,0.6875 1.09755,0 2,-0.925434 2,-2.03125 0,-1.10582 -0.902447,-2 -2,-2 -0.020619,0 -0.042032,-0.000629 -0.0625,0 -0.248965,-1.6819 -1.68673,-3 -3.4375,-3 -0.087392,0 -0.164215,0.024924 -0.25,0.03125 -0.803601,-1.21398 -2.18615,-2.03125 -3.75,-2.03125 -0.56089,0 -1.09862,0.124303 -1.59375,0.3125 -0.28822,-1.20784 -1.31202,-2.13343 -2.5625,-2.28125 -0.955793,-0.645897 -2.10417,-1.03125 -3.34375,-1.03125 z "/>
<path style="fill:none;stroke:#fff;stroke-linejoin:round" id="path3313" d="m 12.5,19.5 c -2.21002,0 -4.06528,1.45402 -4.71875,3.4375 -0.169351,0.506148 -0.702965,0.793479 -1.21875,0.65625 -0.257592,-0.062974 -0.417572,-0.09375 -0.5625,-0.09375 -0.988224,0 -1.85247,0.640066 -2.25,1.5 -0.195505,0.413194 -0.643928,0.643812 -1.09375,0.5625 -0.24318,-0.04252 -0.288711,-0.0625 -0.15625,-0.0625 -0.548471,0 -1,0.444199 -1,1 0,0.555802 0.470718,1.03125 1,1.03125 0.155315,0 0.307695,-0.05857 0.4375,-0.125 0.40861,-0.213473 0.909885,-0.123501 1.21875,0.21875 0.46469,0.519284 1.12003,0.875001 1.84375,0.875 0.589824,0 1.10736,-0.242504 1.5625,-0.625 0.403957,-0.342523 1.00378,-0.315259 1.375,0.0625 0.914619,0.94184 2.16716,1.5625 3.5625,1.5625 0.339491,0 0.706548,-0.0585 1.03125,-0.125 0.449821,-0.081312 0.898245,0.149306 1.09375,0.5625 0.167925,0.344647 0.513996,0.59375 0.875,0.59375 0.495313,0 0.920413,-0.419328 0.96875,-0.9375 0.033174,-0.35333 0.24917,-0.663398 0.569106,-0.816967 0.319936,-0.153569 0.696964,-0.128153 0.993394,0.066967 0.576772,0.39796 1.24762,0.65625 1.96875,0.65625 0.560338,0 1.10542,-0.1917 1.625,-0.46875 0.329249,-0.169629 0.724897,-0.145651 1.03125,0.0625 0.387591,0.255151 0.828046,0.40625 1.34375,0.40625 0.547175,0 1.02715,-0.172351 1.4375,-0.46875 0.41425,-0.307118 0.993256,-0.253257 1.34375,0.125 0.199792,0.224064 0.451898,0.375 0.71875,0.375 0.529283,0 1,-0.475449 1,-1.03125 0,-0.555802 -0.451529,-1 -1,-1 -0.041179,0 -0.053101,0.000672 -0.03125,0 -0.506672,0.017073 -0.947653,-0.34373 -1.03125,-0.84375 -0.177613,-1.19987 -1.19414,-2.15625 -2.4375,-2.15625 0.10482,0 0.048365,0.013857 -0.1875,0.03125 -0.358359,0.02554 -0.703354,-0.141009 -0.90625,-0.4375 -0.624289,-0.943097 -1.69461,-1.59375 -2.90625,-1.59375 -0.411529,0 -0.843908,0.095646 -1.25,0.25 -0.265035,0.0937 -0.557115,0.072826 -0.806132,-0.057611 -0.249017,-0.130437 -0.432486,-0.358661 -0.506368,-0.629889 -0.189832,-0.795529 -0.892964,-1.43363 -1.71875,-1.53125 -0.155985,-0.017419 -0.305772,-0.070914 -0.4375,-0.15625 -0.799098,-0.540007 -1.75118,-0.875 -2.78125,-0.875 z "/>
</g>
</g>
<g style="filter:url(#filter3049)" id="g2073">
<g style="fill-rule:evenodd;stroke-linejoin:round;color:#000">
<path style="stroke-linecap:round;fill:url(#radialGradient5170);stroke:none" id="path5162" d="m 46.1387,23.428 a 22.4506,22.4506 0 1,1 -44.9013,0 22.4506,22.4506 0 1,1 44.9013,0 z " transform="translate(-0.146446,0.103554)"/>
<path style="stroke-width:1.34;fill:url(#radialGradient5160);stroke:#888a85" id="path1314" d="m 45.2143,23.1429 a 22.1429,22.1429 0 1,1 -44.2857,0 22.1429,22.1429 0 1,1 44.2857,0 z " transform="matrix(0.746154,0,0,0.74614,6.850475,6.75386)"/>
<path style="opacity:.331;stroke-linecap:round;fill:url(#radialGradient5205);stroke:none" id="path5152" d="m 10.875,25 c 0,0 2.59375,1.21875 2.625,2.125 0.03125,0.90625 -2.3125,0.3125 -2.5,1.5 -0.1875,1.1875 0.28125,3.21875 1.75,3.25 1.46875,0.03125 1.84375,-2.4375 4.125,-3.125 2.28125,-0.6875 4,1.46875 5,0.375 1,-1.09375 -1.15625,-2.625 -1,-4.75 0.15625,-2.125 0.53125,-1.71875 1.625,-2.4375 1.09375,-0.71875 1.50299,1.72238 2.75,-0.4375 1.20508,-2.08727 -2.53125,-1.34375 -2.375,-2.75 0.15625,-1.40625 1.09375,-2.96875 3,-2.875 1.90625,0.09375 4.625,3.25 4.625,3.25 1.21114,1.16526 0.038624,3.4264 0.625,5 0.688739,1.8483 2.58333,1.74243 3.875,1.75 0,0 -1.90625,-2.15625 -1.625,-3.5 0.28125,-1.34375 1.375,-2.6875 2.75,-1.875 1.375,0.8125 2.75,5.125 2.75,5.125 l 1,-4.375 -2.125,-5.25 c 0,0 -3.03125,1.0625 -6.375,0.375 -3.34375,-0.6875 -3.6875,-3.28125 -7,-3.125 -3.3125,0.15625 -3.625,3.46875 -6.25,3.75 -2.625,0.28125 -3.375,-1.15625 -4.25,-2.625 -0.875,-1.46875 0.75,-3.25 0.75,-3.25 l -6.25,8.5 2.5,5.375 z "/>
<path style="opacity:.809;stroke-width:1.427;fill:none;stroke:url(#radialGradient5144)" id="path2044" d="m 45.2143,23.1429 a 22.1429,22.1429 0 1,1 -44.2857,0 22.1429,22.1429 0 1,1 44.2857,0 z " transform="matrix(0.700698,0,0,0.700684,7.903204,7.809815)"/>
<g style="stroke-linecap:round">
<path style="opacity:.646;fill:url(#radialGradient5197);stroke:none" id="path5150" d="m 22.625,27 c 0.382135,1.58933 0.877663,2.61168 1.375,3.625 1.55453,-0.140944 2.79341,-0.913178 4,-1.75 -0.722958,1.50878 -1.57191,2.93358 -2.64775,4.20711 2.26597,0.881285 4.36656,0.687649 6.39775,0.042893 -1.42529,1.19341 -2.80674,2.11464 -5.71339,2.39645 2.09821,0.63309 4.42378,1.36164 7.33839,0.478553 -2.67688,1.5464 -5.48796,2.71705 -8.75,2.625 l 3.2286,-.0455 -6.4786,.2955 -3.375,-.625 .125,-1.5 c -1.41131,0.157149 -2.98021,-0.631292 -4.5,-1.125 1.3655,-0.605625 2.83261,-1.08424 3.75,-2.25 -1.77543,-0.349574 -2.62216,-1.62784 -3.875,-2.5 1.66666,0.25003 3.20978,1.24135 5,0.75 -0.935272,-2.58333 -0.823175,-5.16667 -1.125,-7.75 1.02097,2.20833 1.68557,4.41667 3.125,6.625 0.960276,-0.725767 1.63565,-1.95012 2.125,-3.5 z "/>
<path style="opacity:.331;stroke-width:1.155;fill:#bbbbb8;stroke:#888984" id="path4263" d="m 23.875,34.5 a 2.25,2.25 0 1,1 -4.5,0 2.25,2.25 0 1,1 4.5,0 z " transform="matrix(1,0,0,0.75,0,8.769607)"/>
<g style="stroke:none">
<g style="fill:#b2afad">
<path style="opacity:.719" id="path5207" d="m 25,21.75 a 2.625,2.3125 0 1,1 -5.25,0 2.625,2.3125 0 1,1 5.25,0 z "/>
<path style="opacity:.719" id="path5209" d="m 25,21.75 a 2.625,2.3125 0 1,1 -5.25,0 2.625,2.3125 0 1,1 5.25,0 z " transform="matrix(1.22619,0,0,1.22619,-10.09226,-10.31771)"/>
<path style="opacity:.719" id="path5211" d="m 25,21.75 a 2.625,2.3125 0 1,1 -5.25,0 2.625,2.3125 0 1,1 5.25,0 z " transform="matrix(1.060177,0.61609,-0.61609,1.060177,4.459731,-11.05444)"/>
</g>
<g style="fill:#dfdedc">
<path style="opacity:.719" id="path5213" d="m 25,21.75 a 2.625,2.3125 0 1,1 -5.25,0 2.625,2.3125 0 1,1 5.25,0 z " transform="matrix(0.398445,0.375367,-0.217478,0.387667,31.50244,6.347965)"/>
<path style="opacity:.719" id="path5215" d="m 25,21.75 a 2.625,2.3125 0 1,1 -5.25,0 2.625,2.3125 0 1,1 5.25,0 z " transform="matrix(-9.424576e-2,0.266814,-0.228734,-2.18427e-2,38.6609,29.47153)"/>
<path style="opacity:.719" id="path5217" d="m 25,21.75 a 2.625,2.3125 0 1,1 -5.25,0 2.625,2.3125 0 1,1 5.25,0 z " transform="matrix(0.211478,0.199229,-0.115428,0.205758,34.19839,11.49557)"/>
</g>
<g style="fill:#f7f7f6">
<path style="opacity:.719" id="path5219" d="m 25,21.75 a 2.625,2.3125 0 1,1 -5.25,0 2.625,2.3125 0 1,1 5.25,0 z " transform="matrix(0.502196,-0.217849,0.270291,0.352881,2.662133,8.622118)"/>
<path style="opacity:.719" id="path5221" d="m 25,21.75 a 2.625,2.3125 0 1,1 -5.25,0 2.625,2.3125 0 1,1 5.25,0 z " transform="matrix(0.301729,-0.130888,0.162396,0.212018,12.27059,8.635285)"/>
<path style="opacity:.719" id="path5223" d="m 25,21.75 a 2.625,2.3125 0 1,1 -5.25,0 2.625,2.3125 0 1,1 5.25,0 z " transform="matrix(0.212633,-9.223866e-2,0.114443,0.149412,14.87145,10.98834)"/>
</g>
</g>
</g>
</g>
<path style="opacity:.25;stroke:#000;stroke-width:0" id="shadow" d="m 24.05,39 c -8.28427,0 -15,-6.71573 -15,-15 s 6.71573,-15 15,-15 c -7.17439,0 -12.9904,6.71573 -12.9904,15 s 5.81599,15 12.9904,15 z "/>
</g>
<g style="stroke-linecap:round;stroke-dashoffset:1.2">
<path style="opacity:.05;filter:url(#filter3045);stroke:none" id="path2915" d="m 20.5,7 c -1.28297,0 -2.29099,1.02687 -2.40625,2.28125 -0.35926,-0.10877 -0.70003,-0.28125 -1.09375,-0.28125 -1.91586,0 -3.41718,1.41361 -3.78125,3.21875 -0.240132,-0.079283 -0.452558,-0.21875 -0.71875,-0.21875 -1.36077,0 -2.46875,1.13965 -2.46875,2.5 0,1.36035 1.10798,2.5 2.46875,2.5 0.81261,0 1.45126,-0.47955 1.90625,-1.09375 0.708111,0.618773 1.59205,1.0625 2.59375,1.0625 0.730305,0 1.40816,-0.24781 2,-0.59375 0.588982,0.358822 1.25147,0.625 2,0.625 1.01301,0 1.89979,-0.442142 2.59375,-1.0625 0.114944,0.021054 0.222573,0.0625 0.375,0.0625 1.65115,0 3.03125,-1.35305 3.03125,-3 0,-1.64695 -1.38009,-3 -3.03125,-3 -0.152428,0 -0.260057,0.041446 -0.375,0.0625 -0.189659,-0.170986 -0.400465,-0.303952 -0.625,-0.4375 0.002399,-0.0422469 0.03125,-0.0813712 0.03125,-0.125 0,-1.36948 -1.13923,-2.5 -2.5,-2.5 z " transform="translate(0,1)"/>
<g style="filter:url(#filter3041)" id="g3341" transform="translate(-1,-1)">
<path style="fill:url(#radialGradient2003);stroke:#729fcf" id="path3252" d="m 21.5,8.5 c -1.09755,0 -1.96875,0.894185 -1.96875,2 0,0.127657 0.00856,0.253957 0.03125,0.375 -0.466974,-0.232152 -1.00593,-0.375 -1.5625,-0.375 -1.86233,0 -3.3395,1.47446 -3.4375,3.3125 -0.305654,-0.193058 -0.675385,-0.3125 -1.0625,-0.3125 -1.09755,0 -1.96875,0.894185 -1.96875,2 0,1.10582 0.871197,2 1.96875,2 0.823165,0 1.54177,-0.49982 1.84375,-1.21875 0.639895,0.744273 1.59847,1.1875 2.65625,1.1875 0.738505,0 1.43592,-0.232948 2,-0.625 0.570218,0.407042 1.24715,0.65625 2,0.65625 0.971213,0 1.8361,-0.419795 2.46875,-1.0625 0.004526,-0.004598 0.026749,0.004623 0.03125,0 0.154565,0.029437 0.305573,0.0625 0.46875,0.0625 1.39102,0 2.53125,-1.12 2.53125,-2.5 0,-1.38 -1.14023,-2.5 -2.53125,-2.5 -0.163177,0 -0.314185,0.033064 -0.46875,0.0625 -0.004827,-0.004962 -0.026394,0.004934 -0.03125,0 -0.29292,-0.297614 -0.616759,-0.541158 -1,-0.71875 0.019161,-0.111597 0.03125,-0.226664 0.03125,-0.34375 0,-1.10582 -0.902447,-2 -2,-2 z "/>
<path style="fill:none;stroke:#fff" id="path3299" d="m 19.5,7.5 c -0.561397,0 -0.96875,0.412654 -0.96875,1 0,0.083528 -0.008063,0.144488 0,0.1875 0.066483,0.366547 -0.079024,0.739305 -0.376252,0.963877 -0.297227,0.224572 -0.695556,0.262712 -1.03,0.0986233 -0.340404,-0.169228 -0.737334,-0.25 -1.125,-0.25 -1.34129,0 -2.36608,1.03558 -2.4375,2.375 -0.015143,0.355658 -0.220584,0.675621 -0.537677,0.837403 -0.317093,0.161783 -0.696727,0.140327 -0.993573,-0.056153 -0.157198,-0.09929 -0.347187,-0.15625 -0.53125,-0.15625 -0.561397,0 -0.96875,0.412655 -0.96875,1 0,0.587347 0.407353,1 0.96875,1 0.423574,0 0.7888,-0.239731 0.9375,-0.59375 0.128552,-0.317221 0.412241,-0.545222 0.749689,-0.602524 0.337448,-0.057303 0.680499,0.06427 0.906561,0.321274 0.448482,0.521637 1.12422,0.84375 1.90625,0.84375 0.53092,0 1.03606,-0.158485 1.4375,-0.4375 0.33832,-0.234562 0.78668,-0.234562 1.125,0 0.424604,0.303097 0.90249,0.46875 1.4375,0.46875 0.686759,0 1.28212,-0.274685 1.75,-0.75 0.000103,-0.000104 0.075067,-0.027697 0.125,-0.0625 0.01989,-0.021756 0.040744,-0.04261 0.0625,-0.0625 0.042578,-0.029664 0.075878,-0.050069 0.09375,-0.0625 0.010031,-0.007069 0.027044,-0.028279 0.03125,-0.03125 0.000288,-0.00013 0.089979,-0.010429 0.15625,-0.03125 0.020458,-0.011151 0.041304,-0.021574 0.0625,-0.03125 0.000791,-0.000148 0.114149,-0.027268 0.1875,-0.03125 0.042303,0.007684 0.084058,0.018123 0.125,0.03125 0.013587,0.002203 0.064015,0.000261 0.0625,0 0.010416,-0.000165 0.020834,-0.000165 0.03125,0 0.171934,0.032745 0.251417,0.03125 0.28125,0.03125 0.86114,0 1.53125,-0.663757 1.53125,-1.5 0,-0.836242 -0.670108,-1.5 -1.53125,-1.5 -0.029829,0 -0.109308,-0.001495 -0.28125,0.03125 -0.010416,0.000165 -0.020834,0.000165 -0.03125,0 -0.001491,0.000279 -0.044667,-0.003091 -0.0625,0 -0.020062,0.003477 -0.006941,0.028125 -0.0625,0.03125 -0.033098,0.001862 -0.093322,-0.025497 -0.15625,-0.03125 -0.036836,-0.003368 -0.093357,7.8e-05 -0.09375,0 -0.000231,-4.6e-05 -0.045164,-0.0153 -0.09375,-0.03125 -0.042303,-0.007684 -0.084058,-0.018123 -0.125,-0.03125 5.2e-05,2.5e-05 -0.023743,-0.025869 -0.03125,-0.03125 -0.092759,-0.048831 -0.17715,-0.112124 -0.25,-0.1875 -0.002411,-0.001712 -0.03123,2.1e-05 -0.03125,0 -0.226631,-0.230262 -0.424156,-0.377968 -0.6875,-0.5 -0.406387,-0.186013 -0.637118,-0.621838 -0.5625,-1.0625 0.011728,-0.0683078 0,-0.138361 0,-0.1875 0,-0.568749 -0.438603,-1 -1,-1 z " transform="translate(2,2)"/>
</g>
<g style="filter:url(#filter3037)" id="g3098">
<path style="fill:url(#radialGradient3088);stroke:#729fcf" id="path3219" d="m 39,18.4688 c -0.826405,0 -1.5,0.698212 -1.5,1.53125 0,0.197846 0.056235,0.358064 0.125,0.53125 -1.59859,0.170386 -2.88346,1.40608 -3.09375,3 -1.22257,0.162087 -2.2326,0.944756 -2.71875,2.03125 -0.236388,0.033158 -0.462891,0.091204 -0.6875,0.15625 -0.437207,-0.727792 -1.21473,-1.21875 -2.125,-1.21875 -1.2619,0 -2.29922,0.940798 -2.46875,2.15625 -0.328913,-0.087578 -0.674878,-0.15625 -1.03125,-0.15625 -1.30672,0 -2.45739,0.623703 -3.1875,1.59375 -0.501225,-0.37801 -1.13681,-0.59375 -1.8125,-0.59375 -1.05699,0 -1.96713,0.547171 -2.5,1.375 -0.264499,-0.237205 -0.618395,-0.40625 -1,-0.40625 -0.826405,0 -1.5,0.698212 -1.5,1.53125 0,0.833037 0.673594,1.5 1.5,1.5 0.232427,0 0.459913,-0.06084 0.65625,-0.15625 0.370414,1.23309 1.49054,2.15625 2.84375,2.15625 0.677794,1e-06 1.31048,-0.244856 1.8125,-0.625 0.729196,0.980912 1.87222,1.625 3.1875,1.625 1.12018,0 2.11738,-0.475969 2.84375,-1.21875 0.89883,1.33008 2.43125,2.21875 4.15625,2.21875 1.49029,1e-06 2.80246,-0.683355 3.71875,-1.71875 0.4525,0.4525 1.09125,0.71875 1.78125,0.71875 1.01112,-1e-06 1.88756,-0.604503 2.28125,-1.46875 0.505752,0.285547 1.09691,0.46875 1.71875,0.46875 1.03753,0 1.95459,-0.467783 2.59375,-1.1875 0.272106,0.140979 0.579405,0.21875 0.90625,0.21875 1.09755,1e-06 2,-0.925434 2,-2.03125 1e-06,-1.10581 -0.902447,-2 -2,-2 -0.126885,0 -0.254699,0.039575 -0.375,0.0625 -0.363457,-0.78622 -0.98152,-1.41156 -1.78125,-1.75 0.089594,-0.257996 0.15625,-0.523916 0.15625,-0.8125 0,-1.22928 -0.89919,-2.22798 -2.0625,-2.4375 -0.124742,-1.01314 -0.672549,-1.88239 -1.46875,-2.4375 0.318611,-0.276818 0.53125,-0.668054 0.53125,-1.125 0,-0.833038 -0.673594,-1.53125 -1.5,-1.53125 z "/>
<path style="fill:none;stroke:#fff" id="path3094" d="m 39,19.4688 c -0.267973,0 -0.5,0.232665 -0.5,0.53125 0,0.009977 -0.028535,0.005679 0.03125,0.15625 0.123512,0.290035 0.10175,0.621519 -0.058621,0.892917 -0.160372,0.271398 -0.44024,0.450365 -0.753879,0.482083 -1.15193,0.122778 -2.06827,0.9844 -2.21875,2.125 -0.061607,0.437946 -0.405804,0.782143 -0.84375,0.84375 -0.880873,0.116786 -1.58794,0.687532 -1.9375,1.46875 -0.145819,0.309821 -0.441176,0.522478 -0.78125,0.5625 -0.165038,0.02315 -0.326326,0.065655 -0.53125,0.125 -0.430795,0.125517 -0.89219,-0.053914 -1.125,-0.4375 -0.271364,-0.451723 -0.727472,-0.71875 -1.28125,-0.71875 -0.769134,0 -1.39724,0.544494 -1.5,1.28125 -0.034187,0.281189 -0.187004,0.534331 -0.419897,0.695565 -0.232894,0.161234 -0.523626,0.215164 -0.798853,0.148185 -0.286397,-0.076258 -0.552244,-0.125 -0.78125,-0.125 -0.991241,0 -1.85433,0.454205 -2.40625,1.1875 -0.330943,0.42626 -0.94201,0.509588 -1.375,0.1875 -0.324318,-0.244592 -0.754093,-0.375 -1.21875,-0.375 -0.714836,0 -1.29385,0.343256 -1.65625,0.90625 -0.154193,0.248212 -0.41002,0.415773 -0.699168,0.45794 -0.289148,0.042168 -0.582173,-0.045352 -0.800832,-0.23919 -0.111554,-0.100042 -0.25494,-0.15625 -0.34375,-0.15625 -0.267973,0 -0.5,0.232665 -0.5,0.53125 0,0.298584 0.207032,0.5 0.5,0.5 0.059414,0 0.144167,-0.026257 0.21875,-0.0625 0.263131,-0.123621 0.567258,-0.125533 0.831923,-0.005231 0.264665,0.120302 0.463198,0.350697 0.543077,0.630231 0.2512,0.83623 1.00395,1.4375 1.90625,1.4375 0.439017,1e-06 0.87299,-0.14443 1.21875,-0.40625 0.43299,-0.322088 1.04406,-0.23876 1.375,0.1875 0.55722,0.74957 1.41463,1.21875 2.40625,1.21875 0.839336,0 1.56774,-0.336401 2.125,-0.90625 0.206457,-0.214641 0.498459,-0.325114 0.795289,-0.300883 0.29683,0.024231 0.567048,0.1806 0.735961,0.425883 0.720831,1.06668 1.95925,1.78125 3.34375,1.78125 1.18721,1e-06 2.22029,-0.529256 2.96875,-1.375 0.182872,-0.201106 0.440286,-0.318318 0.712041,-0.324226 0.271755,-0.005908 0.53402,0.100008 0.725459,0.292976 0.26013,0.26013 0.658795,0.40625 1.09375,0.40625 0.615957,-1e-06 1.13912,-0.357196 1.375,-0.875 0.111553,-0.260369 0.329136,-0.460596 0.59786,-0.550171 0.268723,-0.089574 0.562927,-0.059942 0.80839,0.081421 0.375821,0.212188 0.791644,0.34375 1.21875,0.34375 0.73953,0 1.37562,-0.316615 1.84375,-0.84375 0.305199,-0.34879 0.811302,-0.439629 1.21875,-0.21875 0.133627,0.069233 0.267927,0.09375 0.4375,0.09375 0.540243,0 1,-0.464838 1,-1.03125 1e-06,-0.566409 -0.440937,-1 -1,-1 0.079266,0 0.012058,-0.006778 -0.1875,0.03125 -0.450878,0.088581 -0.903544,-0.144219 -1.09375,-0.5625 -0.267839,-0.579382 -0.685092,-1.01093 -1.25,-1.25 -0.475778,-0.198291 -0.720281,-0.728047 -0.5625,-1.21875 0.070327,-0.202514 0.09375,-0.364082 0.09375,-0.5 0,-0.745804 -0.539882,-1.34086 -1.25,-1.46875 -0.413563,-0.086114 -0.727156,-0.424794 -0.78125,-0.84375 -0.090126,-0.731996 -0.489602,-1.35057 -1.0625,-1.75 -0.252328,-0.173052 -0.410631,-0.452906 -0.428956,-0.758325 -0.018325,-0.30542 0.10538,-0.602193 0.335206,-0.804175 0.134344,-0.116721 0.1875,-0.225631 0.1875,-0.375 0,-0.298585 -0.232025,-0.53125 -0.5,-0.53125 z "/>
</g>
</g>
</g>
</svg>
