<?xml version="1.0" encoding="UTF-8" standalone="no"?>
<!-- Created with Inkscape (http://www.inkscape.org/) -->

<svg
   xmlns:dc="http://purl.org/dc/elements/1.1/"
   xmlns:cc="http://creativecommons.org/ns#"
   xmlns:rdf="http://www.w3.org/1999/02/22-rdf-syntax-ns#"
   xmlns:svg="http://www.w3.org/2000/svg"
   xmlns="http://www.w3.org/2000/svg"
   version="1.1"
   width="22"
   height="22"
   viewBox="0 0 22 22"
   id="svg1358"
   xml:space="preserve"><defs
   id="defs9" />
<metadata
   id="metadata1375">
  <rdf:RDF>
    <cc:Work
   rdf:about="">
      <dc:format>image/svg+xml</dc:format>
      <dc:type
   rdf:resource="http://purl.org/dc/dcmitype/StillImage" />
      <dc:title></dc:title>
      <dc:description>A folder</dc:description>
      <cc:license
   rdf:resource="http://creativecommons.org/licenses/LGPL/2.1/" />
      <dc:contributor>
        <cc:Agent>
          <dc:title />
        </cc:Agent>
      </dc:contributor>
      <dc:subject>
        <rdf:Bag>
          <rdf:li>folder</rdf:li>
          <rdf:li>directory</rdf:li>
        </rdf:Bag>
      </dc:subject>
    </cc:Work>
    <cc:License
   rdf:about="http://creativecommons.org/licenses/LGPL/2.1/"><cc:permits
     rdf:resource="http://web.resource.org/cc/Reproduction" /><cc:permits
     rdf:resource="http://web.resource.org/cc/Distribution" /><cc:requires
     rdf:resource="http://web.resource.org/cc/Notice" /><cc:permits
     rdf:resource="http://web.resource.org/cc/DerivativeWorks" /><cc:requires
     rdf:resource="http://web.resource.org/cc/ShareAlike" /><cc:requires
     rdf:resource="http://web.resource.org/cc/SourceCode" /></cc:License></rdf:RDF></metadata>
	<rect
   width="20.105093"
   height="18.803276"
   x="1"
   y="1.1967239"
   id="rect4762"
   style="fill:none" /><path
   d="m 3.4172966,3.4409008 c -0.6342002,0 -0.9513003,0.2965675 -0.9513003,0.8897026 v 7.4141916 c 0,0.593136 0.6342002,1.186271 1.2684004,1.186271 H 13.881599 c 0.634201,0 1.268401,-0.593135 1.268401,-1.186271 V 6.4065766 c 0,-0.5931346 -0.6342,-1.18627 -1.268401,-1.18627 H 8.1737977 V 4.3306034 c 0,-0.5931351 -0.3171,-0.8897026 -0.9513001,-0.8897026 h -3.805201 z"
   id="path9126"
   style="fill:#ffffff;stroke:#000000;stroke-width:2.83547997;stroke-linecap:round;stroke-linejoin:round;stroke-miterlimit:4;stroke-opacity:1;stroke-dasharray:none" /><path
   d="m 3.4172966,3.4409008 c -0.6342002,0 -0.9513003,0.2965675 -0.9513003,0.8897026 v 7.4141916 c 0,0.593136 0.6342002,1.186271 1.2684004,1.186271 H 13.881599 c 0.634201,0 1.268401,-0.593135 1.268401,-1.186271 V 6.4065766 c 0,-0.5931346 -0.6342,-1.18627 -1.268401,-1.18627 H 8.1737977 V 4.3306034 c 0,-0.5931351 -0.3171,-0.8897026 -0.9513001,-0.8897026 h -3.805201 z"
   id="path1365"
   style="fill:#ffffff" />
<path
   d="m 7.8152858,7.685802 c -0.6342005,0 -0.9513006,0.296568 -0.9513006,0.889703 v 7.414192 c 0,0.593135 0.6342006,1.18627 1.2684006,1.18627 H 18.279588 c 0.6342,0 1.2684,-0.593135 1.2684,-1.18627 v -5.338219 c 0,-0.593134 -0.6342,-1.18627 -1.2684,-1.18627 H 12.571787 V 8.575505 c 0,-0.593135 -0.317101,-0.889703 -0.9513,-0.889703 H 7.8152858 z"
   id="path9126-6"
   style="fill:#ffffff;stroke:#000000;stroke-width:2.83547997;stroke-linecap:round;stroke-linejoin:round;stroke-miterlimit:4;stroke-opacity:1;stroke-dasharray:none" /><path
   d="m 7.8152858,7.685802 c -0.6342005,0 -0.9513006,0.296568 -0.9513006,0.889703 v 7.414192 c 0,0.593135 0.6342006,1.18627 1.2684006,1.18627 H 18.279588 c 0.6342,0 1.2684,-0.593135 1.2684,-1.18627 v -5.338219 c 0,-0.593134 -0.6342,-1.18627 -1.2684,-1.18627 H 12.571787 V 8.575505 c 0,-0.593135 -0.317101,-0.889703 -0.9513,-0.889703 H 7.8152858 z"
   id="path1365-5"
   style="fill:#ffffff" /></svg>