<?xml version="1.0" encoding="UTF-8" standalone="no"?>
<!-- Created with Inkscape (http://www.inkscape.org/) -->

<svg
   xmlns:dc="http://purl.org/dc/elements/1.1/"
   xmlns:cc="http://creativecommons.org/ns#"
   xmlns:rdf="http://www.w3.org/1999/02/22-rdf-syntax-ns#"
   xmlns:svg="http://www.w3.org/2000/svg"
   xmlns="http://www.w3.org/2000/svg"
   xmlns:sodipodi="http://sodipodi.sourceforge.net/DTD/sodipodi-0.dtd"
   xmlns:inkscape="http://www.inkscape.org/namespaces/inkscape"
   width="22"
   height="22"
   id="svg2"
   version="1.1"
   inkscape:version="0.48.4 r9939"
   sodipodi:docname="kazam-paused.svg">
  <defs
     id="defs4" />
  <sodipodi:namedview
     id="base"
     pagecolor="#ffffff"
     bordercolor="#666666"
     borderopacity="1.0"
     inkscape:pageopacity="0.0"
     inkscape:pageshadow="2"
     inkscape:zoom="16"
     inkscape:cx="2.3445456"
     inkscape:cy="9.6320874"
     inkscape:document-units="px"
     inkscape:current-layer="layer1"
     showgrid="false"
     inkscape:showpageshadow="false"
     borderlayer="true"
     inkscape:window-width="1366"
     inkscape:window-height="718"
     inkscape:window-x="0"
     inkscape:window-y="0"
     inkscape:window-maximized="1" />
  <metadata
     id="metadata7">
    <rdf:RDF>
      <cc:Work
         rdf:about="">
        <dc:format>image/svg+xml</dc:format>
        <dc:type
           rdf:resource="http://purl.org/dc/dcmitype/StillImage" />
        <dc:title />
      </cc:Work>
    </rdf:RDF>
  </metadata>
  <g
     inkscape:label="Layer 1"
     inkscape:groupmode="layer"
     id="layer1"
     transform="translate(0,-1030.3622)">
    <rect
       style="fill:#ffffff;fill-opacity:1;stroke:#ffffff;stroke-opacity:1;stroke-width:2;stroke-miterlimit:4;stroke-dasharray:none"
       id="rect2985"
       width="16"
       height="16"
       x="3"
       y="1033.3622"
       ry="1.3492064"
       rx="1.3492064" />
    <path
       style="fill:#000000;fill-opacity:1;stroke:none"
       d="m 17.70125,1034.2511 c 0.25408,0 0.409302,0.1151 0.409861,0.3659 l 0.0035,1.5543 c -14.2261632,0 -0.0067,0 -14.2256944,0 l 0,-1.5126 c 0,-0.2356 0.1627533,-0.41 0.4049512,-0.41 3.9233058,0.01 9.0653822,0 13.4074152,0 z"
       id="rect3755"
       inkscape:connector-curvature="0"
       sodipodi:nodetypes="csccscc" />
    <path
       sodipodi:nodetypes="csccscc"
       inkscape:connector-curvature="0"
       id="path3758"
       d="m 17.70125,1048.6133 c 0.25408,0 0.409302,-0.1151 0.409861,-0.3659 l 0.0035,-1.5543 c -14.2261632,0 -0.0067,0 -14.2256944,0 l 0,1.5126 c 0,0.2356 0.1627533,0.41 0.4049512,0.41 3.9233058,-0.01 9.0653822,0 13.4074152,0 z"
       style="fill:#000000;fill-opacity:1;stroke:none" />
    <rect
       style="fill:#000000;fill-opacity:1;stroke:none"
       id="rect3781"
       width="8"
       height="8"
       x="7"
       y="1037.3622"
       rx="0"
       ry="0" />
    <rect
       style="fill:#ffffff;fill-opacity:1;stroke:none"
       id="rect3802"
       width="2.3999999"
       height="8.7999992"
       x="9.8000002"
       y="1036.9622" />
  </g>
</svg>
