<?xml version="1.0" encoding="UTF-8" standalone="no"?>
<!-- Created with Inkscape (http://www.inkscape.org/) -->

<svg
   xmlns:dc="http://purl.org/dc/elements/1.1/"
   xmlns:cc="http://creativecommons.org/ns#"
   xmlns:rdf="http://www.w3.org/1999/02/22-rdf-syntax-ns#"
   xmlns:svg="http://www.w3.org/2000/svg"
   xmlns="http://www.w3.org/2000/svg"
   xmlns:xlink="http://www.w3.org/1999/xlink"
   xmlns:sodipodi="http://sodipodi.sourceforge.net/DTD/sodipodi-0.dtd"
   xmlns:inkscape="http://www.inkscape.org/namespaces/inkscape"
   width="48"
   height="48"
   id="svg3349"
   sodipodi:version="0.32"
   inkscape:version="0.48.3.1 r9886"
   version="1.0"
   sodipodi:docname="transform-rotate.svg"
   inkscape:output_extension="org.inkscape.output.svg.inkscape">
  <defs
     id="defs3351">
    <linearGradient
       id="linearGradient3533">
      <stop
         id="stop3535"
         style="stop-color:#c1b0e6;stop-opacity:1;"
         offset="0" />
      <stop
         id="stop3545"
         style="stop-color:#9c83d5;stop-opacity:1;"
         offset="1" />
    </linearGradient>
    <linearGradient
       id="linearGradient3266">
      <stop
         style="stop-color:#7653c6;stop-opacity:1;"
         offset="0"
         id="stop3268" />
      <stop
         style="stop-color:#683fc5;stop-opacity:0;"
         offset="1"
         id="stop3270" />
    </linearGradient>
    <linearGradient
       id="linearGradient3276">
      <stop
         style="stop-color:#9c83d5;stop-opacity:1;"
         offset="0"
         id="stop3278" />
      <stop
         style="stop-color:#9c83d5;stop-opacity:0;"
         offset="1"
         id="stop3280" />
    </linearGradient>
    <linearGradient
       id="linearGradient4873"
       inkscape:collect="always">
      <stop
         id="stop4875"
         offset="0"
         style="stop-color:#ffffff;stop-opacity:1;" />
      <stop
         id="stop4877"
         offset="1"
         style="stop-color:#ffffff;stop-opacity:0;" />
    </linearGradient>
    <linearGradient
       id="linearGradient3319">
      <stop
         style="stop-color:#ffffff;stop-opacity:0;"
         offset="0"
         id="stop3321" />
      <stop
         id="stop3323"
         offset="0.63129705"
         style="stop-color:#ffffff;stop-opacity:0.27472529" />
      <stop
         style="stop-color:#ffffff;stop-opacity:0;"
         offset="1"
         id="stop3325" />
    </linearGradient>
    <linearGradient
       inkscape:collect="always"
       xlink:href="#linearGradient3533"
       id="linearGradient3402"
       gradientUnits="userSpaceOnUse"
       gradientTransform="matrix(0.3446423,-0.3446422,0.3381098,0.3381098,0.1178032,10.322607)"
       x1="20.137201"
       y1="4.4757133"
       x2="16.597107"
       y2="17.94278" />
    <linearGradient
       inkscape:collect="always"
       xlink:href="#linearGradient3276"
       id="linearGradient3404"
       gradientUnits="userSpaceOnUse"
       gradientTransform="matrix(0.5097808,3.0679686e-2,-3.0098127e-2,0.5001183,5.2256066,-3.4926097)"
       x1="31.226292"
       y1="34.600941"
       x2="34.96563"
       y2="26.842505" />
    <linearGradient
       inkscape:collect="always"
       xlink:href="#linearGradient3266"
       id="linearGradient3406"
       gradientUnits="userSpaceOnUse"
       gradientTransform="matrix(0.5097808,3.0679686e-2,-3.0098127e-2,0.5001183,5.2256066,-3.4926097)"
       x1="33.686768"
       y1="35.773647"
       x2="37.039948"
       y2="29.856804" />
    <linearGradient
       inkscape:collect="always"
       xlink:href="#linearGradient4873"
       id="linearGradient3408"
       gradientUnits="userSpaceOnUse"
       gradientTransform="matrix(0.3446423,-0.3446422,0.3381098,0.3381098,0.1178032,10.322607)"
       x1="32.325527"
       y1="5.0201149"
       x2="22.245434"
       y2="43.366352" />
    <linearGradient
       inkscape:collect="always"
       xlink:href="#linearGradient3319"
       id="linearGradient3410"
       gradientUnits="userSpaceOnUse"
       gradientTransform="matrix(0.4865175,2.9279582e-2,-2.8724737e-2,0.4772959,5.2842788,-2.0361756)"
       x1="28.116938"
       y1="41.67448"
       x2="39.686337"
       y2="28.50532" />
    <linearGradient
       inkscape:collect="always"
       xlink:href="#linearGradient4873"
       id="linearGradient2420"
       gradientUnits="userSpaceOnUse"
       gradientTransform="matrix(0.6892164,-0.6892162,0.6761527,0.6761527,-7.5101133,28.644755)"
       x1="32.325527"
       y1="5.0201149"
       x2="22.245434"
       y2="43.366352" />
    <linearGradient
       inkscape:collect="always"
       xlink:href="#linearGradient4873"
       id="linearGradient2433"
       gradientUnits="userSpaceOnUse"
       gradientTransform="matrix(0.6892164,-0.6892162,0.6761527,0.6761527,-7.5101133,28.644755)"
       x1="32.325527"
       y1="5.0201149"
       x2="22.245434"
       y2="43.366352" />
  </defs>
  <sodipodi:namedview
     id="base"
     pagecolor="#ffffff"
     bordercolor="#666666"
     borderopacity="1.0"
     inkscape:pageopacity="0.0"
     inkscape:pageshadow="2"
     inkscape:zoom="8.6031328"
     inkscape:cx="10.472754"
     inkscape:cy="23.997277"
     inkscape:current-layer="layer1"
     showgrid="true"
     inkscape:grid-bbox="true"
     inkscape:document-units="px"
     inkscape:window-width="1680"
     inkscape:window-height="999"
     inkscape:window-x="0"
     inkscape:window-y="0"
     inkscape:window-maximized="1">
    <inkscape:grid
       type="xygrid"
       id="grid3412"
       visible="true"
       enabled="true"
       empspacing="5"
       snapvisiblegridlinesonly="true" />
  </sodipodi:namedview>
  <metadata
     id="metadata3354">
    <rdf:RDF>
      <cc:Work
         rdf:about="">
        <dc:format>image/svg+xml</dc:format>
        <dc:type
           rdf:resource="http://purl.org/dc/dcmitype/StillImage" />
      </cc:Work>
    </rdf:RDF>
  </metadata>
  <g
     id="layer1"
     inkscape:label="Layer 1"
     inkscape:groupmode="layer">
    <path
       style="opacity:0.4;fill:none;stroke:none"
       d="m 24.517033,36.712846 c -1.607273,0 -3.432824,0.0822 -4.964931,-0.768848 -2.7135,-0.83088 -4.962682,-2.790902 -5.933087,-5.313949 -1.617732,-3.920945 -1.04627,-8.942855 2.354643,-11.900733 2.366041,-2.098504 5.664665,-2.952313 8.858956,-3.051226 0.06861,0.923526 0.151023,2.669542 0.151023,3.907357 3.549061,-2.627995 6.45383,-4.73608 8.685046,-6.449856 -2.717035,-1.979696 -6.269722,-4.9235599 -8.751014,-7.1173377 0,1.0662656 -0.06443,2.2328109 -0.08506,3.3603701 0.386245,1.3061406 -1.464326,0.5257019 -2.255795,0.8204476 -4.967324,0.337185 -9.893402,2.499708 -12.8359185,6.340407 -4.5100884,5.4819 -4.6984765,13.616607 -0.5080298,19.303796 3.1962133,4.415057 8.8206683,7.498961 14.6266693,6.994745"
       id="path2431"
       sodipodi:nodetypes="ccccccccccccc"
       inkscape:connector-curvature="0" />
    <path
       id="path3882"
       style="fill:#000000;fill-opacity:1;fill-rule:evenodd;stroke:#ffffff;stroke-width:10;stroke-linecap:round;stroke-linejoin:round;stroke-miterlimit:4;stroke-opacity:1;stroke-dasharray:none"
       d="m 23.49996,17.624482 -0.43022,0.0087 -0.438996,0.03511 -0.438989,0.05265 -0.43022,0.07024 -0.421431,0.09658 -0.421436,0.114139 -0.421436,0.131698 -0.403872,0.158041 -0.403877,0.166816 -0.386319,0.193159 -0.377535,0.210713 -0.368752,0.228278 -0.359976,0.245836 -0.342416,0.263398 -0.324857,0.28096 -0.316076,0.289732 -0.298515,0.307299 -0.280956,0.324856 -0.263402,0.333635 -0.254613,0.3512 -0.228278,0.359975 -0.210719,0.368753 -0.193158,0.377536 -0.166818,0.386317 -0.149258,0.395095 -0.131697,0.403871 -0.11414,0.41266 -0.0878,0.412655 -0.07025,0.412654 -0.04392,0.421436 -0.01754,0.421431 -0.0088,0.421437 0.01755,0.421437 0.04392,0.421436 0.06147,0.412654 0.0878,0.421437 0.105355,0.403871 0.122922,0.403877 0.149259,0.403871 0.166816,0.386318 0.184377,0.377535 0.210718,0.377535 0.219501,0.359977 0.245837,0.351193 0.263397,0.33364 0.280955,0.324857 0.289739,0.316075 0.316075,0.298514 0.324856,0.280957 0.342417,0.263395 0.351192,0.25462 0.359977,0.228278 0.377535,0.210718 0.386319,0.201937 0.40387,0.175599 0.403878,0.158034 0.412653,0.140482 0.421438,0.114138 0.421436,0.09658 0.43899,0.07902 0.43022,0.06147 0.430213,0.03511 0.438996,0.0089 0.438991,0 0.438996,-0.02635 0.430213,-0.05266 0.438996,-0.07024 0.430219,-0.0878 0.421431,-0.105364 0.412654,-0.131699 0.41266,-0.149256 0.395095,-0.166817 0.395094,-0.184377 0.386312,-0.210717 0.368759,-0.228278 0.359976,-0.237061 0.342417,-0.254614 0.333632,-0.280956 0.316076,-0.289737 0.298521,-0.3073 0.289733,-0.316073 0.272178,-0.333635 0.245837,-0.342415 0.237055,-0.359977 0.219501,-0.368758 0.193159,-0.377536 0.175594,-0.386312 0.15804,-0.395094 0.131697,-0.395101 0.11414,-0.412653 0.09658,-0.412654 0.07024,-0.412655 0.05266,-0.421436 0.02636,-0.421437 0.0088,-0.42143 -0.01755,-0.421437 -0.03511,-0.421437 -0.06146,-0.412654 -0.07902,-0.421437 -0.09658,-0.403872 -0.122922,-0.412654 8.095065,-2.467154 0.122922,0.395096 0.114138,0.403876 0.09658,0.395096 0.09658,0.403872 0.0878,0.403876 0.07024,0.403877 0.06147,0.412655 0.05265,0.403875 0.04392,0.412655 0.02636,0.412654 0.01755,0.412654 0.0088,0.412654 0,0.412661 -0.0088,0.412654 -0.01755,0.40387 -0.03511,0.412661 -0.04392,0.412653 -0.06147,0.412677 -0.06147,0.403878 -0.07024,0.403872 -0.0878,0.403877 -0.09657,0.403871 -0.105362,0.3951 -0.11414,0.403872 -0.122916,0.395094 -0.140479,0.386319 -0.149258,0.386318 -0.149257,0.386309 -0.166808,0.377448 -0.175598,0.377535 -0.184376,0.368759 -0.19316,0.368751 -0.210718,0.359977 -0.210719,0.359976 -0.219495,0.351199 -0.23706,0.351193 -0.237055,0.342416 -0.245837,0.333635 -0.263397,0.324857 -0.263394,0.324857 -0.272179,0.316074 -0.280957,0.316075 -0.289739,0.298521 -0.298513,0.298515 -0.307298,0.289739 -0.307293,0.280955 -0.324857,0.272174 -0.324857,0.263397 -0.333635,0.263396 -0.33364,0.254619 -0.351192,0.237055 -0.3512,0.23706 -0.359976,0.219495 -0.359975,0.219502 -0.368753,0.210718 -0.377535,0.201936 -0.377535,0.184375 -0.386319,0.184376 -0.386311,0.1756 -0.395094,0.158041 -0.395102,0.158035 -0.395094,0.140479 -0.412654,0.131699 -0.403872,0.131699 -0.412659,0.114138 -0.412654,0.105357 -0.412655,0.0878 -0.421437,0.08779 -0.421431,0.07902 -0.421435,0.06146 -0.421437,0.05266 -0.430213,0.04392 -0.421438,0.03511 -0.421437,0.02636 -0.430213,0.01755 -0.430213,0.0088 -0.430213,-0.0088 -0.421437,-0.01755 -0.430214,-0.02636 -0.421435,-0.03511 -0.430214,-0.04392 -0.421436,-0.06147 -0.421439,-0.06147 -0.421429,-0.07901 -0.421437,-0.0878 -0.412653,-0.09658 -0.412662,-0.105357 -0.412653,-0.114138 -0.403872,-0.131699 -0.403877,-0.131698 -0.403877,-0.149258 -0.395095,-0.149257 -0.395095,-0.166817 -0.386312,-0.1756 L 15.650754,40.970162 15.264438,40.777003 14.895679,40.583844 14.526926,40.373125 14.16695,40.15363 13.806975,39.925353 13.455781,39.688291 13.113364,39.451237 12.770948,39.196618 12.437308,38.933222 12.112456,38.669824 11.796375,38.388869 11.489088,38.107907 11.181789,37.818168 10.883275,37.519652 10.593536,37.221138 10.31258,36.905057 10.040401,36.588982 9.7770054,36.26413 9.5223912,35.939279 9.2765539,35.596863 9.0394934,35.254445 8.811215,34.91203 8.5829378,34.56083 8.37222,34.200853 8.1702845,33.832101 7.9771253,33.472126 7.7927484,33.09459 7.6171488,32.717054 7.4591146,32.339519 7.3010746,31.953201 7.1605931,31.566891 7.0201185,31.171795 6.8971967,30.785477 6.783058,30.3816 6.6777026,29.986505 6.5811205,29.582633 6.5020971,29.178756 6.4318627,28.766102 6.3616284,28.362225 6.308972,27.958353 l -0.043916,-0.412659 -0.026358,-0.412655 -0.017549,-0.412654 -0.017549,-0.412654 0.00876,-0.412653 0.00886,-0.412662 0.017549,-0.412653 0.035108,-0.412654 0.043916,-0.403878 0.052657,-0.412652 0.061464,-0.403872 0.070234,-0.403877 0.087803,-0.403877 L 6.6865236,22.22508 6.791886,21.821203 6.9060247,21.42611 7.0289398,21.031014 7.160638,20.644696 7.3099026,20.249602 7.4679358,19.872066 7.6347531,19.485748 7.8103527,19.116996 7.9947287,18.73946 8.1878878,18.370702 8.3898234,18.010726 8.600542,17.65075 8.820043,17.299556 9.0570976,16.95714 l 0.2370605,-0.342416 0.2458373,-0.342418 0.2546143,-0.32485 0.2633943,-0.324858 0.280956,-0.316079 0.280963,-0.307294 0.289732,-0.307296 0.289738,-0.298516 0.307298,-0.289738 0.316075,-0.280957 0.316075,-0.272179 0.324851,-0.272171 0.333634,-0.25462 0.333639,-0.254614 0.351194,-0.237062 0.3512,-0.237053 0.359976,-0.228278 0.359975,-0.219501 0.368753,-0.210719 0.377536,-0.193152 0.377535,-0.19316 0.377535,-0.184375 0.386317,-0.1756 0.395095,-0.158041 0.395095,-0.158034 0.403878,-0.14048 0.403871,-0.140482 0.403877,-0.122916 0.412654,-0.114138 0.412654,-0.1053557 0.421438,-0.096583 0.412653,-0.087802 0.421437,-0.079024 0.421437,-0.061464 0.421431,-0.052657 0.430219,-0.052657 0.421431,-0.035108 0.430218,-0.026358 0.430213,-0.00886 0.421438,-0.00886 0,-4.1704535 8.569172,8.2618812 -8.569172,8.261879 0,-4.170447 z"
       inkscape:connector-curvature="0" />
    <path
       inkscape:connector-curvature="0"
       d="m 23.49996,17.624482 -0.43022,0.0087 -0.438996,0.03511 -0.438989,0.05265 -0.43022,0.07024 -0.421431,0.09658 -0.421436,0.114139 -0.421436,0.131698 -0.403872,0.158041 -0.403877,0.166816 -0.386319,0.193159 -0.377535,0.210713 -0.368752,0.228278 -0.359976,0.245836 -0.342416,0.263398 -0.324857,0.28096 -0.316076,0.289732 -0.298515,0.307299 -0.280956,0.324856 -0.263402,0.333635 -0.254613,0.3512 -0.228278,0.359975 -0.210719,0.368753 -0.193158,0.377536 -0.166818,0.386317 -0.149258,0.395095 -0.131697,0.403871 -0.11414,0.41266 -0.0878,0.412655 -0.07025,0.412654 -0.04392,0.421436 -0.01754,0.421431 -0.0088,0.421437 0.01755,0.421437 0.04392,0.421436 0.06147,0.412654 0.0878,0.421437 0.105355,0.403871 0.122922,0.403877 0.149259,0.403871 0.166816,0.386318 0.184377,0.377535 0.210718,0.377535 0.219501,0.359977 0.245837,0.351193 0.263397,0.33364 0.280955,0.324857 0.289739,0.316075 0.316075,0.298514 0.324856,0.280957 0.342417,0.263395 0.351192,0.25462 0.359977,0.228278 0.377535,0.210718 0.386319,0.201937 0.40387,0.175599 0.403878,0.158034 0.412653,0.140482 0.421438,0.114138 0.421436,0.09658 0.43899,0.07902 0.43022,0.06147 0.430213,0.03511 0.438996,0.0089 0.438991,0 0.438996,-0.02635 0.430213,-0.05266 0.438996,-0.07024 0.430219,-0.0878 0.421431,-0.105364 0.412654,-0.131699 0.41266,-0.149256 0.395095,-0.166817 0.395094,-0.184377 0.386312,-0.210717 0.368759,-0.228278 0.359976,-0.237061 0.342417,-0.254614 0.333632,-0.280956 0.316076,-0.289737 0.298521,-0.3073 0.289733,-0.316073 0.272178,-0.333635 0.245837,-0.342415 0.237055,-0.359977 0.219501,-0.368758 0.193159,-0.377536 0.175594,-0.386312 0.15804,-0.395094 0.131697,-0.395101 0.11414,-0.412653 0.09658,-0.412654 0.07024,-0.412655 0.05266,-0.421436 0.02636,-0.421437 0.0088,-0.42143 -0.01755,-0.421437 -0.03511,-0.421437 -0.06146,-0.412654 -0.07902,-0.421437 -0.09658,-0.403872 -0.122922,-0.412654 8.095065,-2.467154 0.122922,0.395096 0.114138,0.403876 0.09658,0.395096 0.09658,0.403872 0.0878,0.403876 0.07024,0.403877 0.06147,0.412655 0.05265,0.403875 0.04392,0.412655 0.02636,0.412654 0.01755,0.412654 0.0088,0.412654 0,0.412661 -0.0088,0.412654 -0.01755,0.40387 -0.03511,0.412661 -0.04392,0.412653 -0.06147,0.412677 -0.06147,0.403878 -0.07024,0.403872 -0.0878,0.403877 -0.09657,0.403871 -0.105362,0.3951 -0.11414,0.403872 -0.122916,0.395094 -0.140479,0.386319 -0.149258,0.386318 -0.149257,0.386309 -0.166808,0.377448 -0.175598,0.377535 -0.184376,0.368759 -0.19316,0.368751 -0.210718,0.359977 -0.210719,0.359976 -0.219495,0.351199 -0.23706,0.351193 -0.237055,0.342416 -0.245837,0.333635 -0.263397,0.324857 -0.263394,0.324857 -0.272179,0.316074 -0.280957,0.316075 -0.289739,0.298521 -0.298513,0.298515 -0.307298,0.289739 -0.307293,0.280955 -0.324857,0.272174 -0.324857,0.263397 -0.333635,0.263396 -0.33364,0.254619 -0.351192,0.237055 -0.3512,0.23706 -0.359976,0.219495 -0.359975,0.219502 -0.368753,0.210718 -0.377535,0.201936 -0.377535,0.184375 -0.386319,0.184376 -0.386311,0.1756 -0.395094,0.158041 -0.395102,0.158035 -0.395094,0.140479 -0.412654,0.131699 -0.403872,0.131699 -0.412659,0.114138 -0.412654,0.105357 -0.412655,0.0878 -0.421437,0.08779 -0.421431,0.07902 -0.421435,0.06146 -0.421437,0.05266 -0.430213,0.04392 -0.421438,0.03511 -0.421437,0.02636 -0.430213,0.01755 -0.430213,0.0088 -0.430213,-0.0088 -0.421437,-0.01755 -0.430214,-0.02636 -0.421435,-0.03511 -0.430214,-0.04392 -0.421436,-0.06147 -0.421439,-0.06147 -0.421429,-0.07901 -0.421437,-0.0878 -0.412653,-0.09658 -0.412662,-0.105357 -0.412653,-0.114138 -0.403872,-0.131699 -0.403877,-0.131698 -0.403877,-0.149258 -0.395095,-0.149257 -0.395095,-0.166817 -0.386312,-0.1756 L 15.650754,40.970162 15.264438,40.777003 14.895679,40.583844 14.526926,40.373125 14.16695,40.15363 13.806975,39.925353 13.455781,39.688291 13.113364,39.451237 12.770948,39.196618 12.437308,38.933222 12.112456,38.669824 11.796375,38.388869 11.489088,38.107907 11.181789,37.818168 10.883275,37.519652 10.593536,37.221138 10.31258,36.905057 10.040401,36.588982 9.7770054,36.26413 9.5223912,35.939279 9.2765539,35.596863 9.0394934,35.254445 8.811215,34.91203 8.5829378,34.56083 8.37222,34.200853 8.1702845,33.832101 7.9771253,33.472126 7.7927484,33.09459 7.6171488,32.717054 7.4591146,32.339519 7.3010746,31.953201 7.1605931,31.566891 7.0201185,31.171795 6.8971967,30.785477 6.783058,30.3816 6.6777026,29.986505 6.5811205,29.582633 6.5020971,29.178756 6.4318627,28.766102 6.3616284,28.362225 6.308972,27.958353 l -0.043916,-0.412659 -0.026358,-0.412655 -0.017549,-0.412654 -0.017549,-0.412654 0.00876,-0.412653 0.00886,-0.412662 0.017549,-0.412653 0.035108,-0.412654 0.043916,-0.403878 0.052657,-0.412652 0.061464,-0.403872 0.070234,-0.403877 0.087803,-0.403877 L 6.6865236,22.22508 6.791886,21.821203 6.9060247,21.42611 7.0289398,21.031014 7.160638,20.644696 7.3099026,20.249602 7.4679358,19.872066 7.6347531,19.485748 7.8103527,19.116996 7.9947287,18.73946 8.1878878,18.370702 8.3898234,18.010726 8.600542,17.65075 8.820043,17.299556 9.0570976,16.95714 l 0.2370605,-0.342416 0.2458373,-0.342418 0.2546143,-0.32485 0.2633943,-0.324858 0.280956,-0.316079 0.280963,-0.307294 0.289732,-0.307296 0.289738,-0.298516 0.307298,-0.289738 0.316075,-0.280957 0.316075,-0.272179 0.324851,-0.272171 0.333634,-0.25462 0.333639,-0.254614 0.351194,-0.237062 0.3512,-0.237053 0.359976,-0.228278 0.359975,-0.219501 0.368753,-0.210719 0.377536,-0.193152 0.377535,-0.19316 0.377535,-0.184375 0.386317,-0.1756 0.395095,-0.158041 0.395095,-0.158034 0.403878,-0.14048 0.403871,-0.140482 0.403877,-0.122916 0.412654,-0.114138 0.412654,-0.1053557 0.421438,-0.096583 0.412653,-0.087802 0.421437,-0.079024 0.421437,-0.061464 0.421431,-0.052657 0.430219,-0.052657 0.421431,-0.035108 0.430218,-0.026358 0.430213,-0.00886 0.421438,-0.00886 0,-4.1704535 8.569172,8.2618812 -8.569172,8.261879 0,-4.170447 z"
       style="fill:#000000;fill-opacity:1;fill-rule:evenodd;stroke:#000000;stroke-width:1.40720117;stroke-linecap:round;stroke-linejoin:round;stroke-miterlimit:4;stroke-opacity:1;stroke-dasharray:none"
       id="path3850" />
  </g>
</svg>
