<?xml version="1.0" encoding="UTF-8" standalone="no"?>
<!-- Created with Inkscape (http://www.inkscape.org/) -->

<svg
   xmlns:dc="http://purl.org/dc/elements/1.1/"
   xmlns:cc="http://creativecommons.org/ns#"
   xmlns:rdf="http://www.w3.org/1999/02/22-rdf-syntax-ns#"
   xmlns:svg="http://www.w3.org/2000/svg"
   xmlns="http://www.w3.org/2000/svg"
   xmlns:xlink="http://www.w3.org/1999/xlink"
   xmlns:sodipodi="http://sodipodi.sourceforge.net/DTD/sodipodi-0.dtd"
   xmlns:inkscape="http://www.inkscape.org/namespaces/inkscape"
   width="48px"
   height="48px"
   id="svg1325"
   sodipodi:version="0.32"
   inkscape:version="0.48.3.1 r9886"
   sodipodi:docname="gnome-panel-notification-area.svg"
   inkscape:output_extension="org.inkscape.output.svg.inkscape"
   version="1.1">
  <sodipodi:namedview
     inkscape:window-height="717"
     inkscape:window-width="1366"
     inkscape:pageshadow="2"
     inkscape:pageopacity="0.0"
     guidetolerance="10000"
     gridtolerance="10000"
     objecttolerance="10000"
     borderopacity="1.0"
     bordercolor="#666666"
     pagecolor="#ffffff"
     id="base"
     inkscape:showpageshadow="false"
     showgrid="true"
     inkscape:zoom="5.6568543"
     inkscape:cx="-12.010561"
     inkscape:cy="4.4284444"
     inkscape:window-x="0"
     inkscape:window-y="0"
     inkscape:current-layer="layer1"
     inkscape:grid-points="false"
     inkscape:grid-bbox="true"
     showborder="true"
     inkscape:window-maximized="1" />
  <defs
     id="defs1327">
    <linearGradient
       id="linearGradient2783">
      <stop
         style="stop-color:#729fcf;stop-opacity:1"
         offset="0"
         id="stop2785" />
      <stop
         style="stop-color:#3465a4;stop-opacity:1;"
         offset="1"
         id="stop2787" />
    </linearGradient>
    <linearGradient
       inkscape:collect="always"
       id="linearGradient2270">
      <stop
         style="stop-color:#ffffff;stop-opacity:1;"
         offset="0"
         id="stop2272" />
      <stop
         style="stop-color:#ffffff;stop-opacity:0;"
         offset="1"
         id="stop2274" />
    </linearGradient>
    <linearGradient
       inkscape:collect="always"
       xlink:href="#linearGradient2270"
       id="linearGradient1341"
       gradientUnits="userSpaceOnUse"
       x1="23.99696"
       y1="18.375"
       x2="45.753761"
       y2="18.375"
       gradientTransform="translate(0,-8)" />
    <radialGradient
       inkscape:collect="always"
       xlink:href="#linearGradient2270"
       id="radialGradient2218"
       cx="3.6239223"
       cy="2.0049825"
       fx="3.6239223"
       fy="2.0049825"
       r="23"
       gradientTransform="matrix(1.246687e-8,1.125998,-1.627297,3.116107e-17,6.886624,6.5312)"
       gradientUnits="userSpaceOnUse" />
  </defs>
  <sodipodi:namedview
     id="namedview22"
     pagecolor="#ffffff"
     bordercolor="#666666"
     borderopacity="1.0"
     inkscape:pageopacity="0"
     inkscape:pageshadow="2"
     inkscape:zoom="1"
     inkscape:cx="29.202731"
     inkscape:cy="14.650528"
     inkscape:current-layer="layer1"
     showgrid="false"
     inkscape:grid-bbox="true"
     inkscape:document-units="px"
     stroke="#eeeeec"
     fill="#2e3436"
     inkscape:window-width="1270"
     inkscape:window-height="943"
     inkscape:window-x="0"
     inkscape:window-y="25"
     showborder="false"
     inkscape:grid-points="true"
     showguides="false"
     inkscape:guide-bbox="true"
     inkscape:showpageshadow="false">
    <sodipodi:guide
       orientation="vertical"
       position="31.875"
       id="guide2260" />
    <inkscape:grid
       id="GridFromPre046Settings"
       type="xygrid"
       originx="0px"
       originy="0px"
       spacingx="0.5px"
       spacingy="0.5px"
       color="#3f3fff"
       empcolor="#3f3fff"
       opacity="0.15"
       empopacity="0.38"
       empspacing="2" />
  </sodipodi:namedview>
  <metadata
     id="metadata1330">
    <rdf:RDF>
      <cc:Work
         rdf:about="">
        <dc:format>image/svg+xml</dc:format>
        <dc:type
           rdf:resource="http://purl.org/dc/dcmitype/StillImage" />
        <dc:title>Info</dc:title>
        <dc:creator>
          <cc:Agent>
            <dc:title>Lapo Calamandrei</dc:title>
          </cc:Agent>
        </dc:creator>
        <dc:subject>
          <rdf:Bag>
            <rdf:li>panel</rdf:li>
            <rdf:li>applet</rdf:li>
            <rdf:li>info</rdf:li>
          </rdf:Bag>
        </dc:subject>
        <dc:contributor>
          <cc:Agent>
            <dc:title>Andreas Nilsson</dc:title>
          </cc:Agent>
        </dc:contributor>
        <cc:license
           rdf:resource="http://creativecommons.org/licenses/GPL/2.0/" />
      </cc:Work>
      <cc:License
         rdf:about="http://creativecommons.org/licenses/GPL/2.0/">
        <cc:permits
           rdf:resource="http://web.resource.org/cc/Reproduction" />
        <cc:permits
           rdf:resource="http://web.resource.org/cc/Distribution" />
        <cc:requires
           rdf:resource="http://web.resource.org/cc/Notice" />
        <cc:permits
           rdf:resource="http://web.resource.org/cc/DerivativeWorks" />
        <cc:requires
           rdf:resource="http://web.resource.org/cc/ShareAlike" />
        <cc:requires
           rdf:resource="http://web.resource.org/cc/SourceCode" />
      </cc:License>
    </rdf:RDF>
  </metadata>
  <g
     id="layer1"
     inkscape:label="Layer 1"
     inkscape:groupmode="layer">
    <rect
       style="fill:#ffffff;fill-opacity:1;stroke:none"
       id="rect2999"
       width="46.138718"
       height="25.809397"
       x="5.833631"
       y="11.230448" />
    <g
       id="g2998"
       style="stroke:#ffffff;stroke-opacity:1;stroke-width:8;stroke-miterlimit:4;stroke-dasharray:none;stroke-linejoin:round;stroke-linecap:round">
      <path
         style="fill:#000000;fill-opacity:1;stroke:#ffffff;stroke-opacity:1;stroke-width:8;stroke-miterlimit:4;stroke-dasharray:none;stroke-linejoin:round;stroke-linecap:round"
         d="M 5.6477439,8.863648 C 4.7107341,8.951959 3.995959,9.740676 4.0000172,10.681829 l 0,26.363628 c 1.004e-4,1.004112 0.8140691,1.818081 1.8181812,1.818181 l 46.3636196,0 C 53.185931,38.863538 53.9999,38.049569 54,37.045457 L 54,10.681829 C 53.9999,9.677717 53.185931,8.8637484 52.181818,8.863648 l -46.3636196,0 c -0.056787,-0.00266 -0.1136676,-0.00266 -0.1704545,0 l 0,0 z m 1.9886357,3.636362 42.7272574,0 0,22.727265 -42.7272574,0 0,-22.727265 z"
         id="path3000"
         inkscape:connector-curvature="0" />
      <path
         style="fill:#000000;fill-opacity:1;stroke:#ffffff;stroke-opacity:1;stroke-width:8;stroke-miterlimit:4;stroke-dasharray:none;stroke-linejoin:round;stroke-linecap:round"
         d="m 29.454553,14.318192 c -7.778175,0 -14.090904,6.312722 -14.090904,14.090904 0,7.778181 6.312729,14.090902 14.090904,14.090904 7.778176,0 14.090904,-6.312723 14.090905,-14.090904 0,-7.778181 -6.312729,-14.090904 -14.090905,-14.090904 z m 0.454546,4.999998 c 1.254546,10e-7 2.272726,1.018181 2.272726,2.272726 10e-7,1.254545 -1.018181,2.272727 -2.272726,2.272727 -1.254545,0 -2.272727,-1.018182 -2.272727,-2.272727 0,-1.254546 1.018182,-2.272726 2.272727,-2.272726 z m -4.090908,6.363634 6.363634,0 0,9.062497 1.818181,0.02841 0,1.818181 -8.181815,0 0,-1.818181 1.818181,0 0,-7.272725 -1.818181,0 0,-1.818181 z"
         id="path3002"
         inkscape:connector-curvature="0" />
    </g>
    <g
       id="g2994">
      <path
         inkscape:connector-curvature="0"
         id="rect1333"
         d="M 5.6477439,8.863648 C 4.7107341,8.951959 3.995959,9.740676 4.0000172,10.681829 l 0,26.363628 c 1.004e-4,1.004112 0.8140691,1.818081 1.8181812,1.818181 l 46.3636196,0 C 53.185931,38.863538 53.9999,38.049569 54,37.045457 L 54,10.681829 C 53.9999,9.677717 53.185931,8.8637484 52.181818,8.863648 l -46.3636196,0 c -0.056787,-0.00266 -0.1136676,-0.00266 -0.1704545,0 l 0,0 z m 1.9886357,3.636362 42.7272574,0 0,22.727265 -42.7272574,0 0,-22.727265 z"
         style="fill:#000000;fill-opacity:1;stroke:none" />
      <path
         inkscape:connector-curvature="0"
         id="path1895"
         d="m 29.454553,14.318192 c -7.778175,0 -14.090904,6.312722 -14.090904,14.090904 0,7.778181 6.312729,14.090902 14.090904,14.090904 7.778176,0 14.090904,-6.312723 14.090905,-14.090904 0,-7.778181 -6.312729,-14.090904 -14.090905,-14.090904 z m 0.454546,4.999998 c 1.254546,10e-7 2.272726,1.018181 2.272726,2.272726 10e-7,1.254545 -1.018181,2.272727 -2.272726,2.272727 -1.254545,0 -2.272727,-1.018182 -2.272727,-2.272727 0,-1.254546 1.018182,-2.272726 2.272727,-2.272726 z m -4.090908,6.363634 6.363634,0 0,9.062497 1.818181,0.02841 0,1.818181 -8.181815,0 0,-1.818181 1.818181,0 0,-7.272725 -1.818181,0 0,-1.818181 z"
         style="fill:#000000;fill-opacity:1;stroke:none" />
    </g>
  </g>
</svg>
